<svg width="13" height="12" viewBox="0 0 13 12" fill="none" xmlns="http://www.w3.org/2000/svg">
<path id="Star 1" d="M6.02414 0.475771C6.17315 0.0137296 6.82685 0.0137297 6.97586 0.475771L8.06317 3.84722C8.12991 4.05414 8.32271 4.19422 8.54013 4.19375L12.0826 4.18601C12.568 4.18494 12.77 4.80666 12.3767 5.09115L9.50622 7.16708C9.33005 7.29449 9.25641 7.52115 9.32404 7.72778L10.4261 11.0944C10.5771 11.5558 10.0482 11.9401 9.65611 11.6539L6.79478 9.5654C6.61916 9.43722 6.38084 9.43722 6.20522 9.5654L3.34389 11.6539C2.95175 11.9401 2.42289 11.5558 2.57392 11.0944L3.67596 7.72778C3.74359 7.52115 3.66995 7.29449 3.49377 7.16708L0.623335 5.09115C0.229955 4.80666 0.431962 4.18494 0.917436 4.18601L4.45987 4.19375C4.67729 4.19422 4.87009 4.05414 4.93683 3.84722L6.02414 0.475771Z" fill="#0D986A"/>
</svg>
